# xmcd CD database file
#
# Track frame offsets:
#	150
#	17597
#	43019
#	63583
#	80085
#	94854
#	113406
#	134705
#	152450
#	177616
#	195588
#
# Disc length: 2793 seconds
#
# Revision: 2
# Processed by: cddbd v1.4b41PL1 Copyright (c) Steve Scherf et al.
# Submitted via: Feurio! 1.52 - http://www.feurio.com
#
DISCID=910ae70b
DTITLE=Various Artist - Freestyle ...Simply The Best [CD 1)
DYEAR=1900
DGENRE=
TTITLE0=Stevie B. - You Are The One
TTITLE1=Bodybase - Crying In The Dark
TTITLE2=Tony Garcia - Love Can't Wait
TTITLE3=The Officer and Elios - La Musica
TTITLE4=Free-Team - Step Into My Life
TTITLE5=N.A.D. - I Wish
TTITLE6=Dj Sequenza - Euro Palance Music
TTITLE7=Angle - Change On Me
TTITLE8=Dj Bobo - Celebrate
TTITLE9=Bob Darwin - I'm Still Missing You
TTITLE10=THT feat. Sabrina - Freestyle Theme
EXTD=
EXTT0=
EXTT1=
EXTT2=
EXTT3=
EXTT4=
EXTT5=
EXTT6=
EXTT7=
EXTT8=
EXTT9=
EXTT10=
PLAYORDER=
